<svg width="221" height="173" viewBox="0 0 221 173" fill="none" xmlns="http://www.w3.org/2000/svg">
<ellipse cx="110.5" cy="125" rx="110.5" ry="6" fill="#D9D9D9"/>
<path d="M15.7 95.8V84.8L48.4 38H64.7V83.6H73.5V95.8H64.7V110H50.7V95.8H15.7ZM51.6 53L31.1 83.6H51.6V53Z" fill="#577DDE"/>
<path d="M147.7 95.8V84.8L180.4 38H196.7V83.6H205.5V95.8H196.7V110H182.7V95.8H147.7ZM183.6 53L163.1 83.6H183.6V53Z" fill="#577DDE"/>
<path d="M83.3 72.6C83.3 61.0667 85.3667 52.0333 89.5 45.5C93.7 38.9667 100.633 35.7 110.3 35.7C119.967 35.7 126.867 38.9667 131 45.5C135.2 52.0333 137.3 61.0667 137.3 72.6C137.3 84.2 135.2 93.3 131 99.9C126.867 106.5 119.967 109.8 110.3 109.8C100.633 109.8 93.7 106.5 89.5 99.9C85.3667 93.3 83.3 84.2 83.3 72.6ZM123.5 72.6C123.5 67.6667 123.167 63.5333 122.5 60.2C121.9 56.8 120.633 54.0333 118.7 51.9C116.833 49.7667 114.033 48.7 110.3 48.7C106.567 48.7 103.733 49.7667 101.8 51.9C99.9333 54.0333 98.6667 56.8 98 60.2C97.4 63.5333 97.1 67.6667 97.1 72.6C97.1 77.6667 97.4 81.9333 98 85.4C98.6 88.8 99.8667 91.5667 101.8 93.7C103.733 95.7667 106.567 96.8 110.3 96.8C114.033 96.8 116.867 95.7667 118.8 93.7C120.733 91.5667 122 88.8 122.6 85.4C123.2 81.9333 123.5 77.6667 123.5 72.6Z" fill="#577DDE"/>
<ellipse cx="105" cy="35.25" rx="5" ry="6.25" fill="black"/>
<ellipse cx="106" cy="36.5" rx="2" ry="2.5" fill="#D9D9D9"/>
<ellipse cx="118" cy="36.25" rx="5" ry="6.25" fill="black"/>
<ellipse cx="117" cy="37.5" rx="2" ry="2.5" fill="#D9D9D9"/>
<path d="M98.0001 29L100.912 25.8172L105.701 25.5774" stroke="black"/>
<path d="M118 26.4948L122.287 26.9766L125.298 30.7085" stroke="black"/>
<path d="M33.996 162H32.036L21.2 145.536V162H19.24V142.428H21.2L32.036 158.864V142.428H33.996V162ZM45.1273 162.224C43.69 162.224 42.3926 161.907 41.2353 161.272C40.0966 160.619 39.1913 159.704 38.5193 158.528C37.866 157.333 37.5393 155.943 37.5393 154.356C37.5393 152.769 37.8753 151.388 38.5473 150.212C39.2193 149.017 40.134 148.103 41.2913 147.468C42.4486 146.815 43.746 146.488 45.1833 146.488C46.6206 146.488 47.918 146.815 49.0753 147.468C50.2513 148.103 51.166 149.017 51.8193 150.212C52.4913 151.388 52.8273 152.769 52.8273 154.356C52.8273 155.924 52.4913 157.305 51.8193 158.5C51.1473 159.695 50.2233 160.619 49.0473 161.272C47.8713 161.907 46.5646 162.224 45.1273 162.224ZM45.1273 160.516C46.1353 160.516 47.0686 160.292 47.9273 159.844C48.786 159.377 49.4766 158.687 49.9993 157.772C50.5406 156.839 50.8113 155.7 50.8113 154.356C50.8113 153.012 50.55 151.883 50.0273 150.968C49.5046 150.035 48.814 149.344 47.9553 148.896C47.0966 148.429 46.1633 148.196 45.1553 148.196C44.1473 148.196 43.214 148.429 42.3553 148.896C41.4966 149.344 40.806 150.035 40.2833 150.968C39.7793 151.883 39.5273 153.012 39.5273 154.356C39.5273 155.7 39.7793 156.839 40.2833 157.772C40.806 158.687 41.4873 159.377 42.3273 159.844C43.186 160.292 44.1193 160.516 45.1273 160.516ZM69.8798 142.428C72.0451 142.428 73.9024 142.82 75.4518 143.604C77.0011 144.388 78.1864 145.517 79.0078 146.992C79.8291 148.467 80.2398 150.221 80.2398 152.256C80.2398 154.272 79.8291 156.017 79.0078 157.492C78.1864 158.948 77.0011 160.068 75.4518 160.852C73.9024 161.617 72.0451 162 69.8798 162H64.0838V142.428H69.8798ZM69.8798 160.376C72.6051 160.376 74.6771 159.667 76.0958 158.248C77.5331 156.811 78.2518 154.813 78.2518 152.256C78.2518 149.68 77.5331 147.673 76.0958 146.236C74.6771 144.78 72.6051 144.052 69.8798 144.052H66.0438V160.376H69.8798ZM82.9573 154.328C82.9573 152.76 83.2653 151.388 83.8813 150.212C84.5159 149.017 85.3839 148.103 86.4853 147.468C87.6053 146.815 88.8653 146.488 90.2653 146.488C91.7213 146.488 92.9719 146.824 94.0173 147.496C95.0813 148.168 95.8466 149.027 96.3133 150.072V146.712H98.2733V162H96.3133V158.612C95.8279 159.657 95.0533 160.525 93.9893 161.216C92.9439 161.888 91.6933 162.224 90.2373 162.224C88.8559 162.224 87.6053 161.897 86.4853 161.244C85.3839 160.591 84.5159 159.667 83.8813 158.472C83.2653 157.277 82.9573 155.896 82.9573 154.328ZM96.3133 154.356C96.3133 153.124 96.0613 152.041 95.5573 151.108C95.0533 150.175 94.3626 149.456 93.4853 148.952C92.6266 148.448 91.6746 148.196 90.6293 148.196C89.5466 148.196 88.5759 148.439 87.7173 148.924C86.8586 149.409 86.1773 150.119 85.6733 151.052C85.1879 151.967 84.9453 153.059 84.9453 154.328C84.9453 155.579 85.1879 156.68 85.6733 157.632C86.1773 158.565 86.8586 159.284 87.7173 159.788C88.5759 160.273 89.5466 160.516 90.6293 160.516C91.6746 160.516 92.6266 160.264 93.4853 159.76C94.3626 159.256 95.0533 158.537 95.5573 157.604C96.0613 156.671 96.3133 155.588 96.3133 154.356ZM105.296 148.364V157.856C105.296 158.789 105.473 159.433 105.828 159.788C106.182 160.143 106.808 160.32 107.704 160.32H109.496V162H107.396C106.014 162 104.988 161.683 104.316 161.048C103.644 160.395 103.308 159.331 103.308 157.856V148.364H101.18V146.712H103.308V142.876H105.296V146.712H109.496V148.364H105.296ZM111.832 154.328C111.832 152.76 112.14 151.388 112.756 150.212C113.391 149.017 114.259 148.103 115.36 147.468C116.48 146.815 117.74 146.488 119.14 146.488C120.596 146.488 121.847 146.824 122.892 147.496C123.956 148.168 124.722 149.027 125.188 150.072V146.712H127.148V162H125.188V158.612C124.703 159.657 123.928 160.525 122.864 161.216C121.819 161.888 120.568 162.224 119.112 162.224C117.731 162.224 116.48 161.897 115.36 161.244C114.259 160.591 113.391 159.667 112.756 158.472C112.14 157.277 111.832 155.896 111.832 154.328ZM125.188 154.356C125.188 153.124 124.936 152.041 124.432 151.108C123.928 150.175 123.238 149.456 122.36 148.952C121.502 148.448 120.55 148.196 119.504 148.196C118.422 148.196 117.451 148.439 116.592 148.924C115.734 149.409 115.052 150.119 114.548 151.052C114.063 151.967 113.82 153.059 113.82 154.328C113.82 155.579 114.063 156.68 114.548 157.632C115.052 158.565 115.734 159.284 116.592 159.788C117.451 160.273 118.422 160.516 119.504 160.516C120.55 160.516 121.502 160.264 122.36 159.76C123.238 159.256 123.928 158.537 124.432 157.604C124.936 156.671 125.188 155.588 125.188 154.356ZM141.266 144.024V151.332H148.686V152.956H141.266V160.376H149.526V162H139.306V142.4H149.526V144.024H141.266ZM160.556 146.432C162.386 146.432 163.879 147.001 165.036 148.14C166.194 149.26 166.772 150.893 166.772 153.04V162H164.84V153.264C164.84 151.603 164.42 150.333 163.58 149.456C162.759 148.579 161.63 148.14 160.192 148.14C158.718 148.14 157.542 148.607 156.664 149.54C155.787 150.473 155.348 151.845 155.348 153.656V162H153.388V146.712H155.348V149.316C155.834 148.383 156.534 147.673 157.448 147.188C158.363 146.684 159.399 146.432 160.556 146.432ZM173.655 148.364V157.856C173.655 158.789 173.833 159.433 174.187 159.788C174.542 160.143 175.167 160.32 176.063 160.32H177.855V162H175.755C174.374 162 173.347 161.683 172.675 161.048C172.003 160.395 171.667 159.331 171.667 157.856V148.364H169.539V146.712H171.667V142.876H173.655V146.712H177.855V148.364H173.655ZM183.048 149.428C183.477 148.476 184.13 147.739 185.008 147.216C185.904 146.693 186.996 146.432 188.284 146.432V148.476H187.752C186.333 148.476 185.194 148.859 184.336 149.624C183.477 150.389 183.048 151.668 183.048 153.46V162H181.088V146.712H183.048V149.428ZM203.832 146.712L194.76 169.196H192.716L195.684 161.916L189.412 146.712H191.568L196.776 159.76L201.816 146.712H203.832Z" fill="white"/>
<path d="M103.783 52.0238L112.783 50.0238L121.783 48.0238" stroke="black" stroke-width="2"/>
<ellipse cx="104.5" cy="42" rx="2.5" ry="1" fill="#7BCBDD"/>
<ellipse cx="116.574" cy="42.2034" rx="2.5" ry="1" transform="rotate(4.74559 116.574 42.2034)" fill="#7BCBDD"/>
</svg>
