<svg width="221" height="173" viewBox="0 0 221 173" fill="none" xmlns="http://www.w3.org/2000/svg">
<ellipse cx="110.5" cy="125" rx="110.5" ry="6" fill="#D9D9D9"/>
<path d="M15.7 95.8V84.8L48.4 38H64.7V83.6H73.5V95.8H64.7V110H50.7V95.8H15.7ZM51.6 53L31.1 83.6H51.6V53Z" fill="#BE374F"/>
<path d="M147.7 95.8V84.8L180.4 38H196.7V83.6H205.5V95.8H196.7V110H182.7V95.8H147.7ZM183.6 53L163.1 83.6H183.6V53Z" fill="#BE374F"/>
<path d="M83.3 72.6C83.3 61.0667 85.3667 52.0333 89.5 45.5C93.7 38.9667 100.633 35.7 110.3 35.7C119.967 35.7 126.867 38.9667 131 45.5C135.2 52.0333 137.3 61.0667 137.3 72.6C137.3 84.2 135.2 93.3 131 99.9C126.867 106.5 119.967 109.8 110.3 109.8C100.633 109.8 93.7 106.5 89.5 99.9C85.3667 93.3 83.3 84.2 83.3 72.6ZM123.5 72.6C123.5 67.6667 123.167 63.5333 122.5 60.2C121.9 56.8 120.633 54.0333 118.7 51.9C116.833 49.7667 114.033 48.7 110.3 48.7C106.567 48.7 103.733 49.7667 101.8 51.9C99.9333 54.0333 98.6667 56.8 98 60.2C97.4 63.5333 97.1 67.6667 97.1 72.6C97.1 77.6667 97.4 81.9333 98 85.4C98.6 88.8 99.8667 91.5667 101.8 93.7C103.733 95.7667 106.567 96.8 110.3 96.8C114.033 96.8 116.867 95.7667 118.8 93.7C120.733 91.5667 122 88.8 122.6 85.4C123.2 81.9333 123.5 77.6667 123.5 72.6Z" fill="#BE374F"/>
<ellipse cx="105" cy="35.25" rx="5" ry="6.25" fill="black"/>
<ellipse cx="106" cy="36.5" rx="2" ry="2.5" fill="#D9D9D9"/>
<ellipse cx="118" cy="36.25" rx="5" ry="6.25" fill="black"/>
<ellipse cx="117" cy="37.5" rx="2" ry="2.5" fill="#D9D9D9"/>
<ellipse cx="111" cy="49" rx="3" ry="4" fill="black"/>
<path d="M98.0001 29L100.912 25.8172L105.701 25.5774" stroke="black"/>
<path d="M118 26.4948L122.287 26.9766L125.298 30.7085" stroke="black"/>
<path d="M56.996 162H55.036L44.2 145.536V162H42.24V142.428H44.2L55.036 158.864V142.428H56.996V162ZM68.1273 162.224C66.69 162.224 65.3926 161.907 64.2353 161.272C63.0966 160.619 62.1913 159.704 61.5193 158.528C60.866 157.333 60.5393 155.943 60.5393 154.356C60.5393 152.769 60.8753 151.388 61.5473 150.212C62.2193 149.017 63.134 148.103 64.2913 147.468C65.4486 146.815 66.746 146.488 68.1833 146.488C69.6206 146.488 70.918 146.815 72.0753 147.468C73.2513 148.103 74.166 149.017 74.8193 150.212C75.4913 151.388 75.8273 152.769 75.8273 154.356C75.8273 155.924 75.4913 157.305 74.8193 158.5C74.1473 159.695 73.2233 160.619 72.0473 161.272C70.8713 161.907 69.5646 162.224 68.1273 162.224ZM68.1273 160.516C69.1353 160.516 70.0686 160.292 70.9273 159.844C71.786 159.377 72.4766 158.687 72.9993 157.772C73.5406 156.839 73.8113 155.7 73.8113 154.356C73.8113 153.012 73.55 151.883 73.0273 150.968C72.5046 150.035 71.814 149.344 70.9553 148.896C70.0966 148.429 69.1633 148.196 68.1553 148.196C67.1473 148.196 66.214 148.429 65.3553 148.896C64.4966 149.344 63.806 150.035 63.2833 150.968C62.7793 151.883 62.5273 153.012 62.5273 154.356C62.5273 155.7 62.7793 156.839 63.2833 157.772C63.806 158.687 64.4873 159.377 65.3273 159.844C66.186 160.292 67.1193 160.516 68.1273 160.516ZM81.9482 148.364V157.856C81.9482 158.789 82.1255 159.433 82.4802 159.788C82.8348 160.143 83.4602 160.32 84.3562 160.32H86.1482V162H84.0482C82.6668 162 81.6402 161.683 80.9682 161.048C80.2962 160.395 79.9602 159.331 79.9602 157.856V148.364H77.8322V146.712H79.9602V142.876H81.9482V146.712H86.1482V148.364H81.9482ZM107.648 142.428V144.052H99.0242V151.36H106.304V152.984H99.0242V162H97.0642V142.428H107.648ZM117.565 162.224C116.127 162.224 114.83 161.907 113.673 161.272C112.534 160.619 111.629 159.704 110.957 158.528C110.303 157.333 109.977 155.943 109.977 154.356C109.977 152.769 110.313 151.388 110.985 150.212C111.657 149.017 112.571 148.103 113.729 147.468C114.886 146.815 116.183 146.488 117.621 146.488C119.058 146.488 120.355 146.815 121.513 147.468C122.689 148.103 123.603 149.017 124.257 150.212C124.929 151.388 125.265 152.769 125.265 154.356C125.265 155.924 124.929 157.305 124.257 158.5C123.585 159.695 122.661 160.619 121.485 161.272C120.309 161.907 119.002 162.224 117.565 162.224ZM117.565 160.516C118.573 160.516 119.506 160.292 120.365 159.844C121.223 159.377 121.914 158.687 122.437 157.772C122.978 156.839 123.249 155.7 123.249 154.356C123.249 153.012 122.987 151.883 122.465 150.968C121.942 150.035 121.251 149.344 120.393 148.896C119.534 148.429 118.601 148.196 117.593 148.196C116.585 148.196 115.651 148.429 114.793 148.896C113.934 149.344 113.243 150.035 112.721 150.968C112.217 151.883 111.965 153.012 111.965 154.356C111.965 155.7 112.217 156.839 112.721 157.772C113.243 158.687 113.925 159.377 114.765 159.844C115.623 160.292 116.557 160.516 117.565 160.516ZM142.082 146.712V162H140.122V159.312C139.674 160.264 138.983 160.992 138.05 161.496C137.116 162 136.071 162.252 134.914 162.252C133.084 162.252 131.591 161.692 130.434 160.572C129.276 159.433 128.698 157.791 128.698 155.644V146.712H130.63V155.42C130.63 157.081 131.04 158.351 131.862 159.228C132.702 160.105 133.84 160.544 135.278 160.544C136.752 160.544 137.928 160.077 138.806 159.144C139.683 158.211 140.122 156.839 140.122 155.028V146.712H142.082ZM153.724 146.432C155.554 146.432 157.047 147.001 158.204 148.14C159.362 149.26 159.94 150.893 159.94 153.04V162H158.008V153.264C158.008 151.603 157.588 150.333 156.748 149.456C155.927 148.579 154.798 148.14 153.36 148.14C151.886 148.14 150.71 148.607 149.832 149.54C148.955 150.473 148.516 151.845 148.516 153.656V162H146.556V146.712H148.516V149.316C149.002 148.383 149.702 147.673 150.616 147.188C151.531 146.684 152.567 146.432 153.724 146.432ZM163.379 154.328C163.379 152.76 163.696 151.388 164.331 150.212C164.966 149.017 165.834 148.103 166.935 147.468C168.055 146.815 169.315 146.488 170.715 146.488C172.059 146.488 173.272 146.815 174.355 147.468C175.438 148.121 176.231 148.971 176.735 150.016V141.28H178.695V162H176.735V158.584C176.268 159.648 175.503 160.525 174.439 161.216C173.375 161.888 172.124 162.224 170.687 162.224C169.287 162.224 168.027 161.897 166.907 161.244C165.806 160.591 164.938 159.667 164.303 158.472C163.687 157.277 163.379 155.896 163.379 154.328ZM176.735 154.356C176.735 153.124 176.483 152.041 175.979 151.108C175.475 150.175 174.784 149.456 173.907 148.952C173.048 148.448 172.096 148.196 171.051 148.196C169.968 148.196 168.998 148.439 168.139 148.924C167.28 149.409 166.599 150.119 166.095 151.052C165.61 151.967 165.367 153.059 165.367 154.328C165.367 155.579 165.61 156.68 166.095 157.632C166.599 158.565 167.28 159.284 168.139 159.788C168.998 160.273 169.968 160.516 171.051 160.516C172.096 160.516 173.048 160.264 173.907 159.76C174.784 159.256 175.475 158.537 175.979 157.604C176.483 156.671 176.735 155.588 176.735 154.356Z" fill="black"/>
</svg>
