<svg width="230" height="173" viewBox="0 0 230 173" fill="none" xmlns="http://www.w3.org/2000/svg">
<ellipse cx="115.5" cy="125" rx="110.5" ry="6" fill="#D9D9D9"/>
<path d="M20.7 95.8V84.8L53.4 38H69.7V83.6H78.5V95.8H69.7V110H55.7V95.8H20.7ZM56.6 53L36.1 83.6H56.6V53Z" fill="#577DDE"/>
<path d="M152.7 95.8V84.8L185.4 38H201.7V83.6H210.5V95.8H201.7V110H187.7V95.8H152.7ZM188.6 53L168.1 83.6H188.6V53Z" fill="#577DDE"/>
<path d="M88.3 72.6C88.3 61.0667 90.3667 52.0333 94.5 45.5C98.7 38.9667 105.633 35.7 115.3 35.7C124.967 35.7 131.867 38.9667 136 45.5C140.2 52.0333 142.3 61.0667 142.3 72.6C142.3 84.2 140.2 93.3 136 99.9C131.867 106.5 124.967 109.8 115.3 109.8C105.633 109.8 98.7 106.5 94.5 99.9C90.3667 93.3 88.3 84.2 88.3 72.6ZM128.5 72.6C128.5 67.6667 128.167 63.5333 127.5 60.2C126.9 56.8 125.633 54.0333 123.7 51.9C121.833 49.7667 119.033 48.7 115.3 48.7C111.567 48.7 108.733 49.7667 106.8 51.9C104.933 54.0333 103.667 56.8 103 60.2C102.4 63.5333 102.1 67.6667 102.1 72.6C102.1 77.6667 102.4 81.9333 103 85.4C103.6 88.8 104.867 91.5667 106.8 93.7C108.733 95.7667 111.567 96.8 115.3 96.8C119.033 96.8 121.867 95.7667 123.8 93.7C125.733 91.5667 127 88.8 127.6 85.4C128.2 81.9333 128.5 77.6667 128.5 72.6Z" fill="#577DDE"/>
<ellipse cx="110" cy="35.25" rx="5" ry="6.25" fill="black"/>
<ellipse cx="111" cy="36.5" rx="2" ry="2.5" fill="#D9D9D9"/>
<ellipse cx="123" cy="36.25" rx="5" ry="6.25" fill="black"/>
<ellipse cx="122" cy="37.5" rx="2" ry="2.5" fill="#D9D9D9"/>
<ellipse cx="116" cy="49" rx="3" ry="4" fill="black"/>
<path d="M103 29L105.912 25.8172L110.701 25.5774" stroke="black"/>
<path d="M123 26.4948L127.287 26.9766L130.298 30.7085" stroke="black"/>
<path d="M13.692 142.428V144.052H8.26V162H6.3V144.052H0.84V142.428H13.692ZM17.7669 143.828C17.3749 143.828 17.0389 143.688 16.7589 143.408C16.4789 143.128 16.3389 142.783 16.3389 142.372C16.3389 141.961 16.4789 141.625 16.7589 141.364C17.0389 141.084 17.3749 140.944 17.7669 140.944C18.1589 140.944 18.4949 141.084 18.7749 141.364C19.0549 141.625 19.1949 141.961 19.1949 142.372C19.1949 142.783 19.0549 143.128 18.7749 143.408C18.4949 143.688 18.1589 143.828 17.7669 143.828ZM18.7469 146.712V162H16.7869V146.712H18.7469ZM22.2893 154.328C22.2893 152.76 22.6066 151.388 23.2413 150.212C23.876 149.017 24.744 148.103 25.8453 147.468C26.9653 146.815 28.2253 146.488 29.6253 146.488C30.9693 146.488 32.1826 146.815 33.2653 147.468C34.348 148.121 35.1413 148.971 35.6453 150.016V141.28H37.6053V162H35.6453V158.584C35.1786 159.648 34.4133 160.525 33.3493 161.216C32.2853 161.888 31.0346 162.224 29.5973 162.224C28.1973 162.224 26.9373 161.897 25.8173 161.244C24.716 160.591 23.848 159.667 23.2133 158.472C22.5973 157.277 22.2893 155.896 22.2893 154.328ZM35.6453 154.356C35.6453 153.124 35.3933 152.041 34.8893 151.108C34.3853 150.175 33.6946 149.456 32.8173 148.952C31.9586 148.448 31.0066 148.196 29.9613 148.196C28.8786 148.196 27.908 148.439 27.0493 148.924C26.1906 149.409 25.5093 150.119 25.0053 151.052C24.52 151.967 24.2773 153.059 24.2773 154.328C24.2773 155.579 24.52 156.68 25.0053 157.632C25.5093 158.565 26.1906 159.284 27.0493 159.788C27.908 160.273 28.8786 160.516 29.9613 160.516C31.0066 160.516 31.9586 160.264 32.8173 159.76C33.6946 159.256 34.3853 158.537 34.8893 157.604C35.3933 156.671 35.6453 155.588 35.6453 154.356ZM41.1838 154.328C41.1838 152.76 41.4918 151.388 42.1078 150.212C42.7425 149.017 43.6105 148.103 44.7118 147.468C45.8318 146.815 47.0918 146.488 48.4918 146.488C49.9478 146.488 51.1985 146.824 52.2438 147.496C53.3078 148.168 54.0732 149.027 54.5398 150.072V146.712H56.4998V162H54.5398V158.612C54.0545 159.657 53.2798 160.525 52.2158 161.216C51.1705 161.888 49.9198 162.224 48.4638 162.224C47.0825 162.224 45.8318 161.897 44.7118 161.244C43.6105 160.591 42.7425 159.667 42.1078 158.472C41.4918 157.277 41.1838 155.896 41.1838 154.328ZM54.5398 154.356C54.5398 153.124 54.2878 152.041 53.7838 151.108C53.2798 150.175 52.5892 149.456 51.7118 148.952C50.8532 148.448 49.9012 148.196 48.8558 148.196C47.7732 148.196 46.8025 148.439 45.9438 148.924C45.0852 149.409 44.4038 150.119 43.8998 151.052C43.4145 151.967 43.1718 153.059 43.1718 154.328C43.1718 155.579 43.4145 156.68 43.8998 157.632C44.4038 158.565 45.0852 159.284 45.9438 159.788C46.8025 160.273 47.7732 160.516 48.8558 160.516C49.9012 160.516 50.8532 160.264 51.7118 159.76C52.5892 159.256 53.2798 158.537 53.7838 157.604C54.2878 156.671 54.5398 155.588 54.5398 154.356ZM69.2344 162L62.9344 155.14V162H60.9744V141.28H62.9344V153.544L69.0944 146.712H71.8384L64.5864 154.328L71.8944 162H69.2344ZM87.9071 142.428C90.0724 142.428 91.9298 142.82 93.4791 143.604C95.0284 144.388 96.2138 145.517 97.0351 146.992C97.8564 148.467 98.2671 150.221 98.2671 152.256C98.2671 154.272 97.8564 156.017 97.0351 157.492C96.2138 158.948 95.0284 160.068 93.4791 160.852C91.9298 161.617 90.0724 162 87.9071 162H82.1111V142.428H87.9071ZM87.9071 160.376C90.6324 160.376 92.7044 159.667 94.1231 158.248C95.5604 156.811 96.2791 154.813 96.2791 152.256C96.2791 149.68 95.5604 147.673 94.1231 146.236C92.7044 144.78 90.6324 144.052 87.9071 144.052H84.0711V160.376H87.9071ZM102.861 143.828C102.469 143.828 102.133 143.688 101.853 143.408C101.573 143.128 101.433 142.783 101.433 142.372C101.433 141.961 101.573 141.625 101.853 141.364C102.133 141.084 102.469 140.944 102.861 140.944C103.253 140.944 103.589 141.084 103.869 141.364C104.149 141.625 104.289 141.961 104.289 142.372C104.289 142.783 104.149 143.128 103.869 143.408C103.589 143.688 103.253 143.828 102.861 143.828ZM103.841 146.712V162H101.881V146.712H103.841ZM110.827 148.364V157.856C110.827 158.789 111.004 159.433 111.359 159.788C111.714 160.143 112.339 160.32 113.235 160.32H115.027V162H112.927C111.546 162 110.519 161.683 109.847 161.048C109.175 160.395 108.839 159.331 108.839 157.856V148.364H106.711V146.712H108.839V142.876H110.827V146.712H115.027V148.364H110.827ZM132.092 153.572C132.092 154.244 132.073 154.757 132.036 155.112H119.352C119.408 156.269 119.688 157.259 120.192 158.08C120.696 158.901 121.358 159.527 122.18 159.956C123.001 160.367 123.897 160.572 124.868 160.572C126.137 160.572 127.201 160.264 128.06 159.648C128.937 159.032 129.516 158.201 129.796 157.156H131.868C131.494 158.649 130.692 159.872 129.46 160.824C128.246 161.757 126.716 162.224 124.868 162.224C123.43 162.224 122.142 161.907 121.004 161.272C119.865 160.619 118.969 159.704 118.316 158.528C117.681 157.333 117.364 155.943 117.364 154.356C117.364 152.769 117.681 151.379 118.316 150.184C118.95 148.989 119.837 148.075 120.976 147.44C122.114 146.805 123.412 146.488 124.868 146.488C126.324 146.488 127.593 146.805 128.676 147.44C129.777 148.075 130.617 148.933 131.196 150.016C131.793 151.08 132.092 152.265 132.092 153.572ZM130.104 153.516C130.122 152.377 129.889 151.407 129.404 150.604C128.937 149.801 128.293 149.195 127.472 148.784C126.65 148.373 125.754 148.168 124.784 148.168C123.328 148.168 122.086 148.635 121.06 149.568C120.033 150.501 119.464 151.817 119.352 153.516H130.104ZM153.878 146.432C155.67 146.432 157.126 147.001 158.246 148.14C159.384 149.26 159.954 150.893 159.954 153.04V162H158.022V153.264C158.022 151.603 157.62 150.333 156.818 149.456C156.015 148.579 154.923 148.14 153.542 148.14C152.104 148.14 150.956 148.616 150.098 149.568C149.239 150.52 148.81 151.901 148.81 153.712V162H146.878V153.264C146.878 151.603 146.476 150.333 145.674 149.456C144.871 148.579 143.77 148.14 142.37 148.14C140.932 148.14 139.784 148.616 138.926 149.568C138.067 150.52 137.638 151.901 137.638 153.712V162H135.678V146.712H137.638V149.344C138.123 148.392 138.814 147.673 139.71 147.188C140.606 146.684 141.604 146.432 142.706 146.432C144.031 146.432 145.188 146.749 146.178 147.384C147.186 148.019 147.914 148.952 148.362 150.184C148.772 148.971 149.472 148.047 150.462 147.412C151.47 146.759 152.608 146.432 153.878 146.432ZM177.55 146.712V162H175.59V159.312C175.142 160.264 174.452 160.992 173.518 161.496C172.585 162 171.54 162.252 170.382 162.252C168.553 162.252 167.06 161.692 165.902 160.572C164.745 159.433 164.166 157.791 164.166 155.644V146.712H166.098V155.42C166.098 157.081 166.509 158.351 167.33 159.228C168.17 160.105 169.309 160.544 170.746 160.544C172.221 160.544 173.397 160.077 174.274 159.144C175.152 158.211 175.59 156.839 175.59 155.028V146.712H177.55ZM190.285 162L183.985 155.14V162H182.025V141.28H183.985V153.544L190.145 146.712H192.889L185.637 154.328L192.945 162H190.285ZM194.582 154.328C194.582 152.76 194.89 151.388 195.506 150.212C196.141 149.017 197.009 148.103 198.11 147.468C199.23 146.815 200.49 146.488 201.89 146.488C203.346 146.488 204.597 146.824 205.642 147.496C206.706 148.168 207.472 149.027 207.938 150.072V146.712H209.898V162H207.938V158.612C207.453 159.657 206.678 160.525 205.614 161.216C204.569 161.888 203.318 162.224 201.862 162.224C200.481 162.224 199.23 161.897 198.11 161.244C197.009 160.591 196.141 159.667 195.506 158.472C194.89 157.277 194.582 155.896 194.582 154.328ZM207.938 154.356C207.938 153.124 207.686 152.041 207.182 151.108C206.678 150.175 205.988 149.456 205.11 148.952C204.252 148.448 203.3 148.196 202.254 148.196C201.172 148.196 200.201 148.439 199.342 148.924C198.484 149.409 197.802 150.119 197.298 151.052C196.813 151.967 196.57 153.059 196.57 154.328C196.57 155.579 196.813 156.68 197.298 157.632C197.802 158.565 198.484 159.284 199.342 159.788C200.201 160.273 201.172 160.516 202.254 160.516C203.3 160.516 204.252 160.264 205.11 159.76C205.988 159.256 206.678 158.537 207.182 157.604C207.686 156.671 207.938 155.588 207.938 154.356ZM221.541 146.432C223.37 146.432 224.863 147.001 226.021 148.14C227.178 149.26 227.757 150.893 227.757 153.04V162H225.825V153.264C225.825 151.603 225.405 150.333 224.565 149.456C223.743 148.579 222.614 148.14 221.177 148.14C219.702 148.14 218.526 148.607 217.649 149.54C216.771 150.473 216.333 151.845 216.333 153.656V162H214.373V146.712H216.333V149.316C216.818 148.383 217.518 147.673 218.433 147.188C219.347 146.684 220.383 146.432 221.541 146.432Z" fill="white"/>
</svg>
