<svg width="221" height="173" viewBox="0 0 221 173" fill="none" xmlns="http://www.w3.org/2000/svg">
<ellipse cx="110.5" cy="125" rx="110.5" ry="6" fill="#D9D9D9"/>
<path d="M15.7 95.8V84.8L48.4 38H64.7V83.6H73.5V95.8H64.7V110H50.7V95.8H15.7ZM51.6 53L31.1 83.6H51.6V53Z" fill="#BE374F"/>
<path d="M147.7 95.8V84.8L180.4 38H196.7V83.6H205.5V95.8H196.7V110H182.7V95.8H147.7ZM183.6 53L163.1 83.6H183.6V53Z" fill="#BE374F"/>
<path d="M83.3 72.6C83.3 61.0667 85.3667 52.0333 89.5 45.5C93.7 38.9667 100.633 35.7 110.3 35.7C119.967 35.7 126.867 38.9667 131 45.5C135.2 52.0333 137.3 61.0667 137.3 72.6C137.3 84.2 135.2 93.3 131 99.9C126.867 106.5 119.967 109.8 110.3 109.8C100.633 109.8 93.7 106.5 89.5 99.9C85.3667 93.3 83.3 84.2 83.3 72.6ZM123.5 72.6C123.5 67.6667 123.167 63.5333 122.5 60.2C121.9 56.8 120.633 54.0333 118.7 51.9C116.833 49.7667 114.033 48.7 110.3 48.7C106.567 48.7 103.733 49.7667 101.8 51.9C99.9333 54.0333 98.6667 56.8 98 60.2C97.4 63.5333 97.1 67.6667 97.1 72.6C97.1 77.6667 97.4 81.9333 98 85.4C98.6 88.8 99.8667 91.5667 101.8 93.7C103.733 95.7667 106.567 96.8 110.3 96.8C114.033 96.8 116.867 95.7667 118.8 93.7C120.733 91.5667 122 88.8 122.6 85.4C123.2 81.9333 123.5 77.6667 123.5 72.6Z" fill="#BE374F"/>
<ellipse cx="105" cy="35.25" rx="5" ry="6.25" fill="black"/>
<ellipse cx="106" cy="36.5" rx="2" ry="2.5" fill="#D9D9D9"/>
<ellipse cx="118" cy="36.25" rx="5" ry="6.25" fill="black"/>
<ellipse cx="117" cy="37.5" rx="2" ry="2.5" fill="#D9D9D9"/>
<path d="M98.0001 29L100.912 25.8172L105.701 25.5774" stroke="black"/>
<path d="M118 26.4948L122.287 26.9766L125.298 30.7085" stroke="black"/>
<path d="M29.036 142.428C31.2013 142.428 33.0587 142.82 34.608 143.604C36.1573 144.388 37.3427 145.517 38.164 146.992C38.9853 148.467 39.396 150.221 39.396 152.256C39.396 154.272 38.9853 156.017 38.164 157.492C37.3427 158.948 36.1573 160.068 34.608 160.852C33.0587 161.617 31.2013 162 29.036 162H23.24V142.428H29.036ZM29.036 160.376C31.7613 160.376 33.8333 159.667 35.252 158.248C36.6893 156.811 37.408 154.813 37.408 152.256C37.408 149.68 36.6893 147.673 35.252 146.236C33.8333 144.78 31.7613 144.052 29.036 144.052H25.2V160.376H29.036ZM42.1135 154.328C42.1135 152.76 42.4215 151.388 43.0375 150.212C43.6722 149.017 44.5402 148.103 45.6415 147.468C46.7615 146.815 48.0215 146.488 49.4215 146.488C50.8775 146.488 52.1282 146.824 53.1735 147.496C54.2375 148.168 55.0029 149.027 55.4695 150.072V146.712H57.4295V162H55.4695V158.612C54.9842 159.657 54.2095 160.525 53.1455 161.216C52.1002 161.888 50.8495 162.224 49.3935 162.224C48.0122 162.224 46.7615 161.897 45.6415 161.244C44.5402 160.591 43.6722 159.667 43.0375 158.472C42.4215 157.277 42.1135 155.896 42.1135 154.328ZM55.4695 154.356C55.4695 153.124 55.2175 152.041 54.7135 151.108C54.2095 150.175 53.5189 149.456 52.6415 148.952C51.7829 148.448 50.8309 148.196 49.7855 148.196C48.7029 148.196 47.7322 148.439 46.8735 148.924C46.0149 149.409 45.3335 150.119 44.8295 151.052C44.3442 151.967 44.1015 153.059 44.1015 154.328C44.1015 155.579 44.3442 156.68 44.8295 157.632C45.3335 158.565 46.0149 159.284 46.8735 159.788C47.7322 160.273 48.7029 160.516 49.7855 160.516C50.8309 160.516 51.7829 160.264 52.6415 159.76C53.5189 159.256 54.2095 158.537 54.7135 157.604C55.2175 156.671 55.4695 155.588 55.4695 154.356ZM64.4521 148.364V157.856C64.4521 158.789 64.6294 159.433 64.9841 159.788C65.3387 160.143 65.9641 160.32 66.8601 160.32H68.6521V162H66.5521C65.1707 162 64.1441 161.683 63.4721 161.048C62.8001 160.395 62.4641 159.331 62.4641 157.856V148.364H60.3361V146.712H62.4641V142.876H64.4521V146.712H68.6521V148.364H64.4521ZM70.9885 154.328C70.9885 152.76 71.2965 151.388 71.9125 150.212C72.5472 149.017 73.4152 148.103 74.5165 147.468C75.6365 146.815 76.8965 146.488 78.2965 146.488C79.7525 146.488 81.0032 146.824 82.0485 147.496C83.1125 148.168 83.8779 149.027 84.3445 150.072V146.712H86.3045V162H84.3445V158.612C83.8592 159.657 83.0845 160.525 82.0205 161.216C80.9752 161.888 79.7245 162.224 78.2685 162.224C76.8872 162.224 75.6365 161.897 74.5165 161.244C73.4152 160.591 72.5472 159.667 71.9125 158.472C71.2965 157.277 70.9885 155.896 70.9885 154.328ZM84.3445 154.356C84.3445 153.124 84.0925 152.041 83.5885 151.108C83.0845 150.175 82.3939 149.456 81.5165 148.952C80.6579 148.448 79.7059 148.196 78.6605 148.196C77.5779 148.196 76.6072 148.439 75.7485 148.924C74.8899 149.409 74.2085 150.119 73.7045 151.052C73.2192 151.967 72.9765 153.059 72.9765 154.328C72.9765 155.579 73.2192 156.68 73.7045 157.632C74.2085 158.565 74.8899 159.284 75.7485 159.788C76.6072 160.273 77.5779 160.516 78.6605 160.516C79.7059 160.516 80.6579 160.264 81.5165 159.76C82.3939 159.256 83.0845 158.537 83.5885 157.604C84.0925 156.671 84.3445 155.588 84.3445 154.356ZM108.907 162L100.423 152.956V162H98.4627V142.428H100.423V151.584L108.907 142.428H111.399L102.243 152.2L111.483 162H108.907ZM121.069 162.224C119.631 162.224 118.334 161.907 117.177 161.272C116.038 160.619 115.133 159.704 114.461 158.528C113.807 157.333 113.481 155.943 113.481 154.356C113.481 152.769 113.817 151.388 114.489 150.212C115.161 149.017 116.075 148.103 117.233 147.468C118.39 146.815 119.687 146.488 121.125 146.488C122.562 146.488 123.859 146.815 125.017 147.468C126.193 148.103 127.107 149.017 127.761 150.212C128.433 151.388 128.769 152.769 128.769 154.356C128.769 155.924 128.433 157.305 127.761 158.5C127.089 159.695 126.165 160.619 124.989 161.272C123.813 161.907 122.506 162.224 121.069 162.224ZM121.069 160.516C122.077 160.516 123.01 160.292 123.869 159.844C124.727 159.377 125.418 158.687 125.941 157.772C126.482 156.839 126.753 155.7 126.753 154.356C126.753 153.012 126.491 151.883 125.969 150.968C125.446 150.035 124.755 149.344 123.897 148.896C123.038 148.429 122.105 148.196 121.097 148.196C120.089 148.196 119.155 148.429 118.297 148.896C117.438 149.344 116.747 150.035 116.225 150.968C115.721 151.883 115.469 153.012 115.469 154.356C115.469 155.7 115.721 156.839 116.225 157.772C116.747 158.687 117.429 159.377 118.269 159.844C119.127 160.292 120.061 160.516 121.069 160.516ZM137.606 162.224C135.851 162.224 134.414 161.823 133.294 161.02C132.192 160.199 131.576 159.088 131.446 157.688H133.462C133.555 158.547 133.956 159.247 134.666 159.788C135.394 160.311 136.364 160.572 137.578 160.572C138.642 160.572 139.472 160.32 140.07 159.816C140.686 159.312 140.994 158.687 140.994 157.94C140.994 157.417 140.826 156.988 140.49 156.652C140.154 156.316 139.724 156.055 139.202 155.868C138.698 155.663 138.007 155.448 137.13 155.224C135.991 154.925 135.067 154.627 134.358 154.328C133.648 154.029 133.042 153.591 132.538 153.012C132.052 152.415 131.81 151.621 131.81 150.632C131.81 149.885 132.034 149.195 132.482 148.56C132.93 147.925 133.564 147.421 134.386 147.048C135.207 146.675 136.14 146.488 137.186 146.488C138.828 146.488 140.154 146.908 141.162 147.748C142.17 148.569 142.711 149.708 142.786 151.164H140.826C140.77 150.268 140.415 149.549 139.762 149.008C139.127 148.448 138.25 148.168 137.13 148.168C136.14 148.168 135.338 148.401 134.722 148.868C134.106 149.335 133.798 149.913 133.798 150.604C133.798 151.201 133.975 151.696 134.33 152.088C134.703 152.461 135.16 152.76 135.702 152.984C136.243 153.189 136.971 153.423 137.886 153.684C138.987 153.983 139.864 154.272 140.518 154.552C141.171 154.832 141.731 155.243 142.198 155.784C142.664 156.325 142.907 157.044 142.926 157.94C142.926 158.761 142.702 159.499 142.254 160.152C141.806 160.787 141.18 161.291 140.378 161.664C139.575 162.037 138.651 162.224 137.606 162.224ZM153.307 162.224C151.87 162.224 150.572 161.907 149.415 161.272C148.276 160.619 147.371 159.704 146.699 158.528C146.046 157.333 145.719 155.943 145.719 154.356C145.719 152.769 146.055 151.388 146.727 150.212C147.399 149.017 148.314 148.103 149.471 147.468C150.628 146.815 151.926 146.488 153.363 146.488C154.8 146.488 156.098 146.815 157.255 147.468C158.431 148.103 159.346 149.017 159.999 150.212C160.671 151.388 161.007 152.769 161.007 154.356C161.007 155.924 160.671 157.305 159.999 158.5C159.327 159.695 158.403 160.619 157.227 161.272C156.051 161.907 154.744 162.224 153.307 162.224ZM153.307 160.516C154.315 160.516 155.248 160.292 156.107 159.844C156.966 159.377 157.656 158.687 158.179 157.772C158.72 156.839 158.991 155.7 158.991 154.356C158.991 153.012 158.73 151.883 158.207 150.968C157.684 150.035 156.994 149.344 156.135 148.896C155.276 148.429 154.343 148.196 153.335 148.196C152.327 148.196 151.394 148.429 150.535 148.896C149.676 149.344 148.986 150.035 148.463 150.968C147.959 151.883 147.707 153.012 147.707 154.356C147.707 155.7 147.959 156.839 148.463 157.772C148.986 158.687 149.667 159.377 150.507 159.844C151.366 160.292 152.299 160.516 153.307 160.516ZM171.748 146.432C173.577 146.432 175.071 147.001 176.228 148.14C177.385 149.26 177.964 150.893 177.964 153.04V162H176.032V153.264C176.032 151.603 175.612 150.333 174.772 149.456C173.951 148.579 172.821 148.14 171.384 148.14C169.909 148.14 168.733 148.607 167.856 149.54C166.979 150.473 166.54 151.845 166.54 153.656V162H164.58V146.712H166.54V149.316C167.025 148.383 167.725 147.673 168.64 147.188C169.555 146.684 170.591 146.432 171.748 146.432ZM188.711 146.488C190.148 146.488 191.399 146.824 192.463 147.496C193.527 148.168 194.292 149.017 194.759 150.044V146.712H196.719V162.392C196.719 163.792 196.411 165.033 195.795 166.116C195.197 167.199 194.357 168.029 193.275 168.608C192.192 169.205 190.96 169.504 189.579 169.504C187.619 169.504 185.985 169.037 184.679 168.104C183.391 167.171 182.588 165.901 182.271 164.296H184.203C184.539 165.36 185.173 166.209 186.107 166.844C187.059 167.479 188.216 167.796 189.579 167.796C190.568 167.796 191.455 167.581 192.239 167.152C193.023 166.741 193.639 166.125 194.087 165.304C194.535 164.483 194.759 163.512 194.759 162.392V158.612C194.273 159.657 193.499 160.525 192.435 161.216C191.389 161.888 190.148 162.224 188.711 162.224C187.311 162.224 186.051 161.897 184.931 161.244C183.829 160.591 182.961 159.667 182.327 158.472C181.711 157.277 181.403 155.896 181.403 154.328C181.403 152.76 181.711 151.388 182.327 150.212C182.961 149.017 183.829 148.103 184.931 147.468C186.051 146.815 187.311 146.488 188.711 146.488ZM194.759 154.356C194.759 153.124 194.507 152.041 194.003 151.108C193.499 150.175 192.808 149.456 191.931 148.952C191.072 148.448 190.12 148.196 189.075 148.196C187.992 148.196 187.021 148.439 186.163 148.924C185.304 149.409 184.623 150.119 184.119 151.052C183.633 151.967 183.391 153.059 183.391 154.328C183.391 155.579 183.633 156.68 184.119 157.632C184.623 158.565 185.304 159.284 186.163 159.788C187.021 160.273 187.992 160.516 189.075 160.516C190.12 160.516 191.072 160.264 191.931 159.76C192.808 159.256 193.499 158.537 194.003 157.604C194.507 156.671 194.759 155.588 194.759 154.356Z" fill="black"/>
<path d="M103.783 52.0238L112.783 50.0238L121.783 48.0238" stroke="black" stroke-width="2"/>
<ellipse cx="104.5" cy="42" rx="2.5" ry="1" fill="#7BCBDD"/>
<ellipse cx="116.574" cy="42.2034" rx="2.5" ry="1" transform="rotate(4.74559 116.574 42.2034)" fill="#7BCBDD"/>
</svg>
